<svg width="960" height="720" viewBox="0 0 960 720" fill="none" xmlns="http://www.w3.org/2000/svg">
<defs>
<linearGradient id="bg" x1="120" y1="80" x2="820" y2="640" gradientUnits="userSpaceOnUse">
<stop stop-color="#F7E5C4"/>
<stop offset="0.52" stop-color="#E8C79E"/>
<stop offset="1" stop-color="#B88254"/>
</linearGradient>
<linearGradient id="fur" x1="320" y1="210" x2="630" y2="590" gradientUnits="userSpaceOnUse">
<stop stop-color="#8C6A55"/>
<stop offset="1" stop-color="#513729"/>
</linearGradient>
<radialGradient id="glow" cx="0" cy="0" r="1" gradientUnits="userSpaceOnUse" gradientTransform="translate(260 180) rotate(42.4) scale(420 360)">
<stop stop-color="#FFF8EF"/>
<stop offset="1" stop-color="#FFF8EF" stop-opacity="0"/>
</radialGradient>
<filter id="blur" x="0" y="0" width="960" height="720" filterUnits="userSpaceOnUse" color-interpolation-filters="sRGB">
<feGaussianBlur stdDeviation="48"/>
</filter>
</defs>
<rect width="960" height="720" rx="56" fill="url(#bg)"/>
<g filter="url(#blur)" opacity="0.55">
<circle cx="218" cy="170" r="136" fill="url(#glow)"/>
<circle cx="782" cy="612" r="170" fill="#F3D8B7"/>
<circle cx="814" cy="126" r="118" fill="#6A8B6D"/>
</g>
<rect x="118" y="96" width="724" height="528" rx="40" fill="#FFF4E7" fill-opacity="0.28" stroke="#FFF9F2" stroke-opacity="0.55" stroke-width="2"/>
<g opacity="0.72">
<rect x="170" y="118" width="12" height="484" rx="6" fill="#F1D5B7"/>
<rect x="194" y="118" width="12" height="484" rx="6" fill="#F1D5B7"/>
</g>
<ellipse cx="478" cy="610" rx="180" ry="42" fill="#7B573D" fill-opacity="0.18"/>
<g>
<path d="M354 230L404 140L454 244L354 230Z" fill="url(#fur)"/>
<path d="M600 244L650 140L700 230L600 244Z" fill="url(#fur)"/>
<path d="M380 256C380 175.366 445.366 110 526 110C606.634 110 672 175.366 672 256V390C672 503.218 580.218 595 467 595H428C401.49 595 380 573.51 380 547V256Z" fill="url(#fur)"/>
<path d="M408 258C408 193.935 459.935 142 524 142C588.065 142 640 193.935 640 258V386C640 470.5 571.5 539 487 539H454C428.595 539 408 518.405 408 493V258Z" fill="#6C4C39"/>
<ellipse cx="468" cy="372" rx="56" ry="74" fill="#FAF0E3"/>
<ellipse cx="582" cy="372" rx="56" ry="74" fill="#FAF0E3"/>
<path d="M524 306C588.065 306 640 357.935 640 422V438C640 496.542 592.542 544 534 544H514C455.458 544 408 496.542 408 438V422C408 357.935 459.935 306 524 306Z" fill="#FFF7EC"/>
<circle cx="468" cy="382" r="16" fill="#91B96B"/>
<circle cx="582" cy="382" r="16" fill="#91B96B"/>
<circle cx="468" cy="382" r="7" fill="#1C211C"/>
<circle cx="582" cy="382" r="7" fill="#1C211C"/>
<path d="M524 414L550 446H498L524 414Z" fill="#D98A76"/>
<path d="M498 454C507.5 464 515.833 469 524 469C532.167 469 540.5 464 550 454" stroke="#614538" stroke-width="8" stroke-linecap="round"/>
<path d="M475 446H390" stroke="#E7D4C0" stroke-width="6" stroke-linecap="round"/>
<path d="M473 464H374" stroke="#E7D4C0" stroke-width="6" stroke-linecap="round"/>
<path d="M573 446H658" stroke="#E7D4C0" stroke-width="6" stroke-linecap="round"/>
<path d="M575 464H674" stroke="#E7D4C0" stroke-width="6" stroke-linecap="round"/>
<path d="M500 280C511.333 271.333 524 267 538 267C552 267 564.667 271.333 576 280" stroke="#4B3328" stroke-width="10" stroke-linecap="round"/>
<path d="M448 334C460.667 321.333 474 315 488 315" stroke="#4B3328" stroke-width="10" stroke-linecap="round"/>
<path d="M560 315C574 315 587.333 321.333 600 334" stroke="#4B3328" stroke-width="10" stroke-linecap="round"/>
</g>
</svg>
